<?xml version="1.0" standalone="no"?>
<!DOCTYPE svg PUBLIC "-//W3C//DTD SVG 20010904//EN"
 "http://www.w3.org/TR/2001/REC-SVG-20010904/DTD/svg10.dtd">
<svg version="1.0" xmlns="http://www.w3.org/2000/svg"
 width="192.000000pt" height="192.000000pt" viewBox="0 0 192.000000 192.000000"
 preserveAspectRatio="xMidYMid meet">

<g transform="translate(0.000000,192.000000) scale(0.100000,-0.100000)"
fill="#000000" stroke="none">
<path d="M477 1153 c-9 -8 -7 -317 2 -358 6 -29 9 -30 64 -33 41 -2 57 1 58
10 1 7 3 33 4 58 2 24 8 46 14 48 6 2 11 10 11 18 0 15 -44 19 -74 8 -19 -7
-22 -34 -3 -34 7 0 12 -14 12 -38 0 -30 -4 -38 -21 -40 -20 -3 -21 3 -27 89
-4 51 -7 127 -7 171 0 71 2 78 20 78 17 0 20 -7 20 -40 0 -36 3 -40 25 -40 23
0 25 4 25 43 0 24 -5 48 -12 55 -13 13 -100 17 -111 5z"/>
<path d="M770 1135 c0 -22 3 -25 25 -19 l25 6 1 -88 c0 -49 2 -100 3 -114 1
-14 3 -55 4 -92 2 -61 4 -68 22 -68 19 0 20 7 20 180 l0 180 25 0 c18 0 25 5
25 20 0 18 -7 20 -75 20 -73 0 -75 -1 -75 -25z"/>
<path d="M953 1024 c4 -75 7 -165 7 -200 0 -57 2 -63 20 -61 18 1 20 8 20 79
0 71 2 78 20 78 13 0 20 7 20 19 0 10 -9 21 -20 24 -18 5 -20 14 -20 76 0 68
1 71 23 71 29 0 36 6 30 29 -3 13 -16 18 -55 20 l-51 2 6 -137z"/>
<path d="M1083 963 l5 -198 53 0 c41 0 54 4 54 15 0 9 -12 17 -30 20 l-30 5
-3 178 -2 177 -26 0 -26 0 5 -197z"/>
<path d="M1220 960 l0 -200 25 0 25 0 -1 200 -1 200 -24 0 -24 0 0 -200z"/>
<path d="M1310 1078 c0 -50 6 -93 13 -108 11 -22 11 -28 0 -38 -7 -7 -13 -35
-14 -65 0 -29 -3 -64 -5 -79 -4 -23 -1 -28 15 -28 23 0 30 18 33 100 3 47 6
55 23 55 18 0 21 -8 25 -75 5 -70 7 -75 29 -78 l24 -4 -7 89 c-3 48 -6 139 -5
201 0 107 -1 112 -20 112 -20 0 -21 -6 -21 -90 0 -72 -3 -92 -15 -97 -9 -3
-18 -4 -20 -2 -2 2 -5 46 -7 96 -3 89 -4 93 -25 93 -22 0 -23 -4 -23 -82z"/>
<path d="M642 958 l3 -193 45 -1 c40 -1 59 8 60 28 0 4 -12 8 -27 10 -27 3
-28 6 -31 61 -3 51 -1 57 16 57 29 0 36 38 8 42 -19 3 -21 10 -24 76 -3 70 -2
72 21 72 21 0 37 16 37 36 0 2 -25 4 -55 4 l-55 0 2 -192z"/>
</g>
</svg>
